<svg width="88" height="100" viewBox="0 0 88 100" fill="none" xmlns="http://www.w3.org/2000/svg">
<path fill-rule="evenodd" clip-rule="evenodd" d="M43.9698 100C29.2084 93.9671 17.9823 85.3808 10.6007 74.4764C4.67367 65.7205 1.19298 55.4524 0.255024 43.9561C-1.25779 25.411 4.42518 9.55367 5.10797 7.73145C6.84146 6.90331 21.9574 0 43.9698 0C65.9818 0 81.0981 6.90294 82.8316 7.73145C83.5144 9.55367 89.1978 25.411 87.6846 43.9558C86.7466 55.452 83.2659 65.7205 77.3389 74.4764C69.9569 85.3808 58.7312 93.9671 43.9698 100Z" fill="#633492"/>
<path fill-rule="evenodd" clip-rule="evenodd" d="M43.9698 97.6847C30.0069 91.8347 19.3801 83.6266 12.3753 73.2785C6.65673 64.8315 3.29731 54.9075 2.38939 43.7823C1.0483 27.3483 5.50478 13.0773 6.81917 9.30024C10.4493 7.69173 24.4014 2.13916 43.9698 2.13916C63.5373 2.13916 77.4898 7.69173 81.1203 9.30024C82.4347 13.0769 86.8905 27.348 85.5498 43.7823C84.6422 54.9075 81.2824 64.8311 75.5642 73.2785C68.559 83.6266 57.9319 91.8351 43.9698 97.6847ZM43.9698 95.361C30.8065 89.7003 20.7772 81.8714 14.1496 72.0811C8.64019 63.9423 5.40205 54.3627 4.52455 43.609C3.30992 28.7205 6.96419 15.6791 8.54339 10.8876C13.1857 8.93988 26.169 4.27804 43.9701 4.27804C61.7708 4.27804 74.7538 8.93913 79.3969 10.8873C80.9761 15.6787 84.6303 28.7205 83.4157 43.6086C82.5378 54.3627 79.2997 63.9423 73.7903 72.0807C67.1627 81.8715 57.133 89.7007 43.9705 95.361" fill="white"/>
<path fill-rule="evenodd" clip-rule="evenodd" d="M25.2922 70.2166C24.9725 69.9048 24.5946 69.6566 24.1692 69.4796C23.7423 69.3011 23.2791 69.2114 22.7918 69.2114C22.3048 69.2114 21.8412 69.3011 21.4139 69.4796C20.9889 69.6566 20.611 69.9048 20.2913 70.2166C19.9716 70.5285 19.7172 70.8973 19.5358 71.3122C19.3533 71.7285 19.261 72.1807 19.261 72.6566C19.261 73.1325 19.3537 73.5844 19.5358 74.0007C19.7172 74.4151 19.9708 74.7836 20.2913 75.0962C20.611 75.4081 20.9889 75.6562 21.4139 75.8336C21.8404 76.0118 22.304 76.1018 22.7918 76.1018C23.2791 76.1018 23.7427 76.0118 24.1692 75.8336C24.5946 75.6562 24.9722 75.4081 25.2922 75.0962C25.6115 74.7847 25.8656 74.4158 26.0477 74.0007C26.2302 73.584 26.3225 73.1318 26.3225 72.6566C26.3225 72.1814 26.2302 71.7292 26.0477 71.3122C25.8652 70.897 25.6112 70.5281 25.2922 70.2166ZM25.1628 72.6566C25.1628 72.9873 25.1012 73.3007 24.9799 73.5859C24.859 73.8714 24.6888 74.1218 24.4748 74.3299C24.2601 74.5392 24.0049 74.7066 23.7164 74.827C23.1433 75.0677 22.4398 75.0677 21.8672 74.827C21.5786 74.7062 21.3234 74.5392 21.1087 74.3296C20.8947 74.1218 20.7248 73.8714 20.6039 73.5859C20.483 73.3007 20.4215 72.9881 20.4215 72.6566C20.4215 72.3251 20.483 72.0118 20.6039 71.727C20.7248 71.4422 20.8947 71.1914 21.1091 70.9829C21.3242 70.774 21.579 70.6066 21.8675 70.4859C22.1542 70.3655 22.4658 70.3044 22.7921 70.3044C23.1185 70.3044 23.4297 70.3655 23.7164 70.4859C24.0045 70.6066 24.2593 70.7736 24.4748 70.9829C24.6888 71.191 24.859 71.4414 24.9799 71.7266C25.1008 72.0125 25.1624 72.3251 25.1624 72.6566H25.1628Z" fill="white"/>
<path fill-rule="evenodd" clip-rule="evenodd" d="M31.7442 73.4523C32.464 73.046 32.8164 72.3523 32.8164 71.5667C32.8164 70.3078 31.9949 69.2878 30.4669 69.2878H28.0183V76.0252H29.178V70.409H30.4016C31.0417 70.409 31.5606 70.9271 31.5606 71.5664C31.5606 72.2052 31.0417 72.7238 30.4016 72.7238H29.5126L32.2471 76.0249H33.8077L31.7442 73.4519" fill="white"/>
<path fill-rule="evenodd" clip-rule="evenodd" d="M39.8046 74.944H36.3718V69.2551H35.2124V75.9895H39.2409L39.8046 74.944Z" fill="white"/>
<path fill-rule="evenodd" clip-rule="evenodd" d="M44.2772 68.7935L40.8469 75.9894H42.1246L44.2772 71.4149L44.9737 72.8886H44.2772L43.7917 73.9342H45.4692L46.4294 75.9897H47.7071L44.2772 68.7938" fill="white"/>
<path fill-rule="evenodd" clip-rule="evenodd" d="M48.9872 71.874L53.4459 76.1848V69.4985H52.1694V73.347L47.8979 69.0359V73.6677L48.9872 75.7225V71.8737" fill="white"/>
<path fill-rule="evenodd" clip-rule="evenodd" d="M59.5433 70.2541C59.2329 69.9549 58.8616 69.7167 58.4385 69.5456C58.016 69.3745 57.5547 69.2878 57.0681 69.2878H54.7827V76.0256H57.0681C57.555 76.0256 58.016 75.9386 58.4385 75.7674C58.8616 75.5963 59.2329 75.3582 59.5433 75.0589C59.853 74.7593 60.1008 74.4004 60.2795 73.9915C60.459 73.5815 60.5499 73.1323 60.5499 72.6567C60.5499 72.1808 60.459 71.7323 60.2795 71.3219C60.1008 70.9127 59.853 70.5538 59.5433 70.2541ZM55.9428 70.3334H56.9535C57.2876 70.3334 57.6055 70.3934 57.8988 70.5115C58.1933 70.6301 58.4552 70.7952 58.6762 71.0027C58.8961 71.2086 59.0719 71.4571 59.1995 71.7408C59.3256 72.0227 59.3901 72.3308 59.3901 72.6564C59.3901 72.9878 59.326 73.2971 59.1999 73.5764C59.073 73.8571 58.8969 74.1038 58.6762 74.3104C58.4552 74.5175 58.1933 74.6826 57.8988 74.8015C57.6058 74.9193 57.2876 74.9793 56.9535 74.9793H55.9428V70.3334Z" fill="white"/>
<path fill-rule="evenodd" clip-rule="evenodd" d="M68.4024 71.3122C68.22 70.897 67.9659 70.5281 67.647 70.2166C67.3269 69.9048 66.9493 69.6566 66.5239 69.4796C66.097 69.3014 65.6338 69.2114 65.1465 69.2114C64.6592 69.2114 64.1959 69.3014 63.7687 69.4796C63.3436 69.6566 62.9657 69.9048 62.646 70.2166C62.3263 70.5285 62.0719 70.8973 61.8905 71.3122C61.7081 71.7285 61.6157 72.1807 61.6157 72.6566C61.6157 73.1325 61.7084 73.5844 61.8905 74.0007C62.0723 74.4151 62.3263 74.7836 62.646 75.0962C62.9657 75.4081 63.3436 75.6562 63.7687 75.8336C64.1952 76.0118 64.6588 76.1018 65.1461 76.1018C65.6334 76.1018 66.0974 76.0118 66.5239 75.8336C66.9493 75.6562 67.3269 75.4081 67.647 75.0962C67.9663 74.7847 68.2203 74.4158 68.4024 74.0007C68.5845 73.584 68.6773 73.1318 68.6773 72.6566C68.6776 72.1814 68.5849 71.7292 68.4024 71.3122ZM67.5171 72.6566C67.5171 72.9873 67.4559 73.3007 67.3347 73.5859C67.2138 73.8714 67.0435 74.1218 66.8295 74.3299C66.6141 74.5392 66.3596 74.7066 66.0711 74.827C65.4977 75.0677 64.7942 75.0677 64.2215 74.827C63.9326 74.7062 63.6778 74.5392 63.4631 74.3296C63.2491 74.1218 63.0792 73.8714 62.9583 73.5859C62.8374 73.3007 62.7755 72.9881 62.7755 72.6566C62.7755 72.3251 62.837 72.0118 62.9583 71.727C63.0792 71.4422 63.2494 71.1914 63.4634 70.9829C63.6782 70.774 63.9333 70.6066 64.2219 70.4859C64.5086 70.3655 64.8201 70.3044 65.1465 70.3044C65.4732 70.3044 65.7844 70.3655 66.0715 70.4859C66.3593 70.6066 66.6144 70.7736 66.8299 70.9829C67.0443 71.191 67.2138 71.4414 67.335 71.7266C67.4563 72.0125 67.5175 72.3251 67.5175 72.6566H67.5171Z" fill="white"/>
<path fill-rule="evenodd" clip-rule="evenodd" d="M39.0948 82.7844C39.0066 82.9185 38.9057 83.0422 38.7915 83.1533C38.5763 83.3622 38.3216 83.5296 38.033 83.6503C37.46 83.8911 36.7564 83.8911 36.1838 83.6503C35.8949 83.5292 35.6397 83.3618 35.4254 83.1533C35.211 82.9451 35.0411 82.6951 34.9202 82.4092C34.7993 82.124 34.7377 81.8111 34.7377 81.4796C34.7377 81.1485 34.7993 80.8355 34.9202 80.5503C35.0411 80.2655 35.2114 80.0148 35.4254 79.8063C35.6405 79.5974 35.8956 79.43 36.1838 79.3092C36.4705 79.1889 36.7817 79.1281 37.1084 79.1281C37.4348 79.1281 37.7463 79.1889 38.033 79.3092C38.3212 79.43 38.5756 79.597 38.7915 79.8063C38.9057 79.917 39.0066 80.0411 39.0948 80.1755V78.6266C38.9049 78.5015 38.7013 78.3929 38.4858 78.3029C38.059 78.1248 37.5957 78.0344 37.1084 78.0344C36.6214 78.0344 36.1578 78.1248 35.731 78.3029C35.3056 78.4804 34.928 78.7285 34.6079 79.0403C34.2882 79.3518 34.0338 79.7207 33.8525 80.1352C33.67 80.5518 33.5776 81.0037 33.5776 81.4796C33.5776 81.9555 33.6704 82.4081 33.8525 82.8244C34.0342 83.2385 34.2882 83.6074 34.6079 83.9196C34.9273 84.2314 35.3056 84.4796 35.7306 84.657C36.1567 84.8351 36.6207 84.9251 37.1084 84.9251C37.5954 84.9251 38.0593 84.8351 38.4858 84.657C38.7017 84.5674 38.9046 84.4585 39.0945 84.3329V82.7844" fill="white"/>
<path fill-rule="evenodd" clip-rule="evenodd" d="M40.7712 78.0344H41.9313V84.7722H40.7712V78.0344Z" fill="white"/>
<path fill-rule="evenodd" clip-rule="evenodd" d="M47.8741 77.9978H43.3672V79.043H45.239V84.7322H46.398V79.043H48.5669L47.8745 77.9978" fill="white"/>
<path fill-rule="evenodd" clip-rule="evenodd" d="M53.9939 78.0344L52.1911 80.6011L50.3882 78.0344H49.0178C49.0553 78.1111 51.6114 81.8133 51.6114 81.8133V84.7722H52.7711V81.8133L55.388 78.0344H53.9943" fill="white"/>
<path fill-rule="evenodd" clip-rule="evenodd" d="M65.8401 38.8784C73.297 38.4765 73.0511 34.0984 73.0511 34.0984C68.6829 36.0088 67.2109 32.7532 65.4229 32.3903C71.5847 30.2758 70.6701 25.6396 70.6701 25.6396C68.2731 28.7336 64.6533 25.9925 62.8913 26.2592C67.8492 22.9688 65.9429 18.3233 65.9429 18.3233C65.0134 21.8088 58.914 20.7755 58.914 20.7755C62.2886 15.8018 59.2826 12.4215 59.2826 12.4215C59.5352 16.0907 53.1286 17.0385 53.1286 17.0385C54.7905 10.5378 51.0639 8.89777 51.0639 8.89777C51.8016 11.9896 47.492 14.4363 47.492 14.4363L43.9701 7.57666L40.4475 14.4363C40.4475 14.4363 36.1379 11.9896 36.8756 8.89777C36.8756 8.89777 33.1494 10.5378 34.8113 17.0385C34.8113 17.0385 28.4047 16.0911 28.6569 12.4215C28.6569 12.4215 25.6509 15.8022 29.0256 20.7755C29.0256 20.7755 22.9264 21.8085 21.9967 18.3233C21.9967 18.3233 20.0903 22.9685 25.0482 26.2592C23.2862 25.9925 19.6661 28.7336 17.2694 25.6396C17.2694 25.6396 16.3548 30.2758 22.5166 32.3903C20.729 32.7532 19.2573 36.0092 14.8884 34.0984C14.8884 34.0984 14.6429 38.4765 22.0994 38.8784C19.428 40.4462 20.0013 43.5262 15.1024 43.0051C15.1024 43.0051 16.7087 47.0195 23.3133 45.2887C21.2868 47.4169 22.3371 50.1772 17.7709 51.0387C17.7709 51.0387 20.7486 54.662 26.4706 50.9569C25.4024 52.9502 26.9026 55.9583 22.8916 57.9476C22.8916 57.9476 27.0414 60.3643 31.4051 55.1921C31.2115 58.3106 33.1212 60.6535 30.0766 63.3265C30.0766 63.3265 34.6629 64.5739 37.3514 58.1587C37.8254 60.8613 40.4271 61.9702 38.3572 66.2398C38.3572 66.2398 41.7853 66.5035 43.9701 60.9109C46.155 66.5035 49.5826 66.2398 49.5826 66.2398C47.5128 61.9705 50.1141 60.8617 50.5885 58.1587C53.2773 64.5742 57.8633 63.3265 57.8633 63.3265C54.8187 60.6535 56.7284 58.3106 56.5351 55.1921C60.8989 60.3639 65.0483 57.9476 65.0483 57.9476C61.0372 55.958 62.5378 52.9502 61.4693 50.9569C67.1912 54.662 70.1687 51.0387 70.1687 51.0387C65.6031 50.1776 66.6535 47.4169 64.6266 45.2887C71.2312 47.0191 72.8375 43.0051 72.8375 43.0051C67.9386 43.5258 68.5119 40.4462 65.8405 38.8784H65.8401ZM33.9267 20.7936C36.9015 20.7936 36.6453 18.4959 36.3256 17.9607C36.3256 17.9607 38.8045 18.0711 40.8837 19.5977C40.8837 19.5977 43.363 16.7648 43.9705 14.4981C44.5784 16.7644 47.057 19.5977 47.057 19.5977C49.1357 18.0711 51.6147 17.9607 51.6147 17.9607C51.295 18.4959 51.0391 20.7936 54.0139 20.7936C56.9887 20.7936 57.6118 21.7696 57.6118 21.7696C56.7488 21.597 55.5334 21.4233 52.3186 22.5096C49.1038 23.5955 49.8081 20.7936 49.8081 20.7936C45.2497 21.1244 43.9709 23.6651 43.9709 23.6651C43.9709 23.6651 42.6917 21.124 38.1336 20.7936C38.1336 20.7936 38.8372 23.5955 35.6231 22.5096C32.4083 21.4233 31.193 21.597 30.3296 21.7696C30.3296 21.7692 30.953 20.7936 33.9278 20.7936H33.9267ZM45.8731 42.1002C44.6255 42.8562 43.9701 43.9302 43.9701 43.9302C43.9701 43.9302 43.314 42.8562 42.0671 42.1002C42.0671 42.1002 42.211 41.2151 41.8988 41.1565C41.5872 41.0976 40.6752 41.1328 40.6752 41.1328C40.6752 41.1328 39.224 40.5428 38.9722 39.3621C38.9722 39.3621 39.7636 39.5865 40.8191 39.2562C41.8747 38.9254 42.3064 39.3036 42.642 39.4451C42.9777 39.5869 43.33 39.634 43.9698 39.634C44.6095 39.634 44.9615 39.5865 45.2975 39.4451C45.6331 39.3036 46.0648 38.9258 47.1204 39.2562C48.1763 39.5865 48.9677 39.3621 48.9677 39.3621C48.7155 40.5428 47.2643 41.1328 47.2643 41.1328C47.2643 41.1328 46.3527 41.0976 46.0415 41.1565C45.7296 41.2151 45.8731 42.1002 45.8731 42.1002ZM39.0764 32.8184C37.525 32.7866 33.5751 32.5036 33.4312 29.4814V29.4029C33.4312 29.4029 35.6194 29.0573 36.4539 29.4029C37.973 30.0325 39.2841 32.9129 41.7471 30.7562C41.7471 30.7562 40.1 34.3925 39.0764 36.2021C39.0764 36.2021 40.6278 32.8495 39.0764 32.8184ZM48.8639 32.8184C47.3125 32.8499 48.8639 36.2021 48.8639 36.2021C47.8403 34.3921 46.1932 30.7562 46.1932 30.7562C48.6562 32.9129 49.9676 30.0329 51.4871 29.4029C52.3212 29.0573 54.5098 29.4029 54.5098 29.4029V29.4814C54.3651 32.5036 50.4153 32.7866 48.8639 32.8184ZM60.6026 42.3721C56.1405 41.4984 54.3651 43.5291 54.3651 43.5291C57.268 43.9302 58.5112 47.3421 58.5112 47.3421C56.3842 46.0436 54.0291 46.3391 54.0291 46.3391C56.9079 53.575 47.324 55.2509 43.9698 59.2291C40.6152 55.2509 31.032 53.5746 33.9104 46.3391C33.9104 46.3391 31.5553 46.0439 29.4283 47.3421C29.4283 47.3421 30.6719 43.9306 33.5744 43.5291C33.5744 43.5291 31.799 41.4988 27.3373 42.3721C27.3373 42.3721 29.6642 39.6336 32.5667 40.1525C32.5667 40.1525 31.0791 37.5795 26.7854 37.3195C26.7854 37.3195 27.4812 36.3988 30.024 36.2099C30.024 36.2099 28.0887 34.014 28.9681 29.9847C28.9681 29.9847 27.4649 28.8047 28.0086 25.2792C28.0086 25.2792 28.5757 28.1384 29.784 27.7818C30.6237 27.5336 30.2398 26.487 29.58 26.5659C29.58 26.5659 29.7718 25.787 31.0068 25.2792C32.2426 24.7718 32.5663 24.7247 32.5181 23.7448C32.5181 23.7448 33.3938 23.3788 33.7057 24.217C34.0176 25.0551 33.166 25.4566 32.734 25.5388C32.3023 25.6218 31.7026 25.7988 31.4389 26.2947C31.4389 26.2947 32.3505 26.6018 31.6306 27.4044C30.9111 28.207 28.2964 34.2273 34.4378 38.4062C34.4378 38.4062 34.2939 40.3417 36.4769 42.1599C36.4769 42.1599 35.5412 42.0732 35.3776 42.1125C35.2137 42.1517 35.1577 43.9147 35.3776 43.9776C35.5975 44.0406 39.0196 43.9776 39.0196 43.9776C39.0196 43.9776 35.5731 45.0165 35.4384 45.1384C35.3038 45.2602 35.4777 46.1813 35.5894 46.1965C35.7014 46.2121 38.4919 45.3706 39.9316 45.2762C39.9316 45.2762 36.669 46.7632 36.1171 47.2117C36.1171 47.2117 36.6445 48.3687 37.3644 48.7698C37.3644 48.7698 42.0823 47.0699 43.9694 45.5354C45.8564 47.0699 50.5747 48.7698 50.5747 48.7698C51.2942 48.3684 51.822 47.2117 51.822 47.2117C51.2698 46.7632 48.0079 45.2762 48.0079 45.2762C49.4473 45.3706 52.2381 46.2124 52.3498 46.1965C52.4618 46.181 52.6353 45.2602 52.5003 45.1384C52.3657 45.0165 48.9195 43.9776 48.9195 43.9776C48.9195 43.9776 52.342 44.0406 52.5615 43.9776C52.7815 43.9147 52.7255 42.1517 52.5615 42.1125C52.3976 42.0732 51.4622 42.1599 51.4622 42.1599C53.6452 40.3417 53.5014 38.4062 53.5014 38.4062C59.6427 34.2277 57.0277 28.207 56.3082 27.4044C55.5887 26.6014 56.5003 26.2947 56.5003 26.2947C56.2366 25.7988 55.6369 25.6218 55.2052 25.5388C54.7731 25.4566 53.9216 25.0551 54.2335 24.217C54.5454 23.3788 55.4206 23.7448 55.4206 23.7448C55.3728 24.7247 55.6966 24.7718 56.932 25.2792C58.1678 25.787 58.3595 26.5659 58.3595 26.5659C57.6997 26.487 57.3162 27.5336 58.1555 27.7818C59.3631 28.1381 59.9309 25.2792 59.9309 25.2792C60.4746 28.8051 58.9714 29.9847 58.9714 29.9847C59.8512 34.014 57.9159 36.2099 57.9159 36.2099C60.4587 36.3988 61.1544 37.3195 61.1544 37.3195C56.8604 37.5795 55.3732 40.1525 55.3732 40.1525C58.276 39.6332 60.6029 42.3721 60.6029 42.3721H60.6026Z" fill="#FDE192"/>
<path fill-rule="evenodd" clip-rule="evenodd" d="M43.9697 48.0603C43.9697 48.0603 38.6543 48.2744 37.8925 49.9981C37.7526 50.314 37.8925 52.5718 37.8925 52.5718C37.8925 52.5718 38.3401 52.6662 38.6921 52.4221C38.6921 52.4221 38.6361 53.4214 39.3637 53.9251C40.091 54.4288 41.2348 55.1369 41.2589 55.1369C41.283 55.1369 41.9547 54.6332 42.3386 54.6018C42.722 54.5703 43.5539 56.0181 43.9701 56.4273C44.3858 56.0181 45.2173 54.5703 45.6008 54.6018C45.9854 54.6332 46.6567 55.1369 46.6808 55.1369C46.7049 55.1369 47.8483 54.4284 48.5756 53.9251C49.3037 53.4214 49.2477 52.4221 49.2477 52.4221C49.5996 52.6662 50.0473 52.5718 50.0473 52.5718C50.0473 52.5718 50.1871 50.3144 50.0473 49.9981C49.2859 48.274 43.9704 48.0603 43.9704 48.0603" fill="#FDE192"/>
</svg>
