<svg width="24" height="25" viewBox="0 0 24 25" fill="none" xmlns="http://www.w3.org/2000/svg">
<path d="M20.0116 23.375C21.4844 23.375 22.6783 22.1438 22.6783 20.625C22.6783 19.1062 21.4844 17.875 20.0116 17.875C18.5389 17.875 17.345 19.1062 17.345 20.625C17.345 22.1438 18.5389 23.375 20.0116 23.375Z" fill="#34A853"/>
<path d="M12.0117 17.875C14.2209 17.875 16.0117 16.0282 16.0117 13.75C16.0117 11.4718 14.2209 9.625 12.0117 9.625C9.80258 9.625 8.01172 11.4718 8.01172 13.75C8.01172 16.0282 9.80258 17.875 12.0117 17.875Z" fill="#4285F4"/>
<path d="M0 19.1125C0 22.2252 2.44833 24.75 5.46667 24.75H12V22L5.31667 21.9828C3.85 21.9828 2.66667 20.5752 2.66667 18.9062V15.8125H0V19.1125Z" fill="#EA4335"/>
<path d="M23.9999 8.3875C23.9999 5.27484 21.5516 2.75 18.5333 2.75H15.3333L18.6666 5.5C20.1333 5.5 21.3333 6.92484 21.3333 8.59375V13.75H23.9999V8.3875Z" fill="#FBBC05"/>
<path d="M14.6667 0H9.33333L7.33333 2.75H5.46667C2.44833 2.75 0 5.27484 0 8.3875V11.6875H2.66667V8.59375C2.66667 6.92484 3.86667 5.5 5.33333 5.5H18.6667L14.6667 0Z" fill="#4285F4"/>
</svg>
