<svg width="33" height="33" viewBox="0 0 33 33" fill="none" xmlns="http://www.w3.org/2000/svg">
<path d="M8.25 11C9.7625 11 11 9.7625 11 8.25C11 6.7375 9.7625 5.5 8.25 5.5C6.7375 5.5 5.5 6.7375 5.5 8.25C5.5 9.7625 6.7375 11 8.25 11ZM16.5 27.5C18.0125 27.5 19.25 26.2625 19.25 24.75C19.25 23.2375 18.0125 22 16.5 22C14.9875 22 13.75 23.2375 13.75 24.75C13.75 26.2625 14.9875 27.5 16.5 27.5ZM8.25 27.5C9.7625 27.5 11 26.2625 11 24.75C11 23.2375 9.7625 22 8.25 22C6.7375 22 5.5 23.2375 5.5 24.75C5.5 26.2625 6.7375 27.5 8.25 27.5ZM8.25 19.25C9.7625 19.25 11 18.0125 11 16.5C11 14.9875 9.7625 13.75 8.25 13.75C6.7375 13.75 5.5 14.9875 5.5 16.5C5.5 18.0125 6.7375 19.25 8.25 19.25ZM16.5 19.25C18.0125 19.25 19.25 18.0125 19.25 16.5C19.25 14.9875 18.0125 13.75 16.5 13.75C14.9875 13.75 13.75 14.9875 13.75 16.5C13.75 18.0125 14.9875 19.25 16.5 19.25ZM22 8.25C22 9.7625 23.2375 11 24.75 11C26.2625 11 27.5 9.7625 27.5 8.25C27.5 6.7375 26.2625 5.5 24.75 5.5C23.2375 5.5 22 6.7375 22 8.25ZM16.5 11C18.0125 11 19.25 9.7625 19.25 8.25C19.25 6.7375 18.0125 5.5 16.5 5.5C14.9875 5.5 13.75 6.7375 13.75 8.25C13.75 9.7625 14.9875 11 16.5 11ZM24.75 19.25C26.2625 19.25 27.5 18.0125 27.5 16.5C27.5 14.9875 26.2625 13.75 24.75 13.75C23.2375 13.75 22 14.9875 22 16.5C22 18.0125 23.2375 19.25 24.75 19.25ZM24.75 27.5C26.2625 27.5 27.5 26.2625 27.5 24.75C27.5 23.2375 26.2625 22 24.75 22C23.2375 22 22 23.2375 22 24.75C22 26.2625 23.2375 27.5 24.75 27.5Z" fill="black"/>
</svg>
