<svg width="29" height="32" viewBox="0 0 29 32" fill="none" xmlns="http://www.w3.org/2000/svg">
<path d="M14.5 20C16.5058 20 18.125 18.2533 18.125 16.04V6.68001C18.125 4.46667 16.5058 2.66667 14.5 2.66667C12.4942 2.66667 10.875 4.45334 10.875 6.68001V16.04C10.875 18.2533 12.4942 20 14.5 20Z" fill="#4285F4"/>
<path d="M13.2917 24.1067H15.7084V29.3333H13.2917V24.1067Z" fill="#34A853"/>
<path d="M8.51883 22.4933C6.98425 20.72 6.04175 18.72 6.04175 16H8.45842C8.45842 17.9333 9.13508 19.2267 10.2347 20.5067V20.9333L8.84508 22.5067L8.51883 22.4933Z" fill="#FBBC05"/>
<path d="M14.5 22.5733C13.7052 22.576 12.9178 22.3946 12.1835 22.0399C11.4493 21.6851 10.7827 21.164 10.2225 20.5067L8.5188 22.4933C10.0413 24.28 12.168 25.3333 14.5 25.3333C19.1763 25.3333 22.9463 21.44 22.9463 16H20.5417C20.5417 19.8933 17.835 22.5733 14.5 22.5733Z" fill="#EA4335"/>
</svg>
